<!-- filepath: /Users/hisheng/Documents/code/bm_website/bm-finance-clone/src/assets/book.svg -->
<svg xmlns="http://www.w3.org/2000/svg" width="24" height="24" viewBox="0 0 24 24" fill="none">
  <path d="M12 7v14" stroke="#fff" stroke-width="2" stroke-linecap="round"/>
  <path d="M3 18a1 1 0 0 1-1-1V4a1 1 0 0 1 1-1h5a4 4 0 0 1 4 4 4 4 0 0 1 4-4h5a1 1 0 0 1 1 1v13a1 1 0 0 1-1 1h-6a3 3 0 0 0-3 3 3 3 0 0 0-3-3z" stroke="#fff" stroke-width="2" stroke-linecap="round" stroke-linejoin="round" fill="none"/>
</svg>